<?xml version="1.0" encoding="UTF-8"?>
<svg id="Calque_2" data-name="Calque 2" xmlns="http://www.w3.org/2000/svg" viewBox="0 0 1321.69 274.18">
  <defs>
    <style>
      .cls-1 {
        fill: #833429;
      }

      .cls-2 {
        fill: #16171d;
      }
    </style>
  </defs>
  <g id="Calque_1-2" data-name="Calque 1">
    <g>
      <path class="cls-2" d="M60.84.2h-25.57v135.92s25.57,0,25.57,0C155.41,120.93,133.1,5.17,60.84.2Z"/>
      <path class="cls-1" d="M499.01,26.92c-1.48-24.11-35.96-31.55-40.49,0v8.53h40.49v-8.53Z"/>
      <path class="cls-2" d="M60.84,136.12h-25.58v137h25.58c94.57-15.19,72.25-132.03,0-137Z"/>
      <polygon class="cls-2" points="20.51 137.02 20.73 137.15 20.73 137 20.5 137.02 20.51 137.02"/>
      <polygon class="cls-2" points="20.73 137.16 20.73 137.15 20.72 137.16 20.73 137.16"/>
      <polygon class="cls-1" points="0 7.5 0 37.34 .39 37.38 .39 43.19 0 43.15 0 73.24 .39 73.19 .39 78.98 0 79.03 0 108.04 .39 107.9 .39 113.98 0 114.11 0 134.74 0 134.74 0 139.12 0 159.43 .39 159.57 .39 165.64 0 165.5 0 195.34 .39 195.38 .39 201.19 0 201.15 0 231.24 .39 231.19 .39 236.98 0 237.03 0 266.04 .39 265.9 .39 271.98 0 272.11 0 272.42 20.75 274.15 20.73 137.15 20.73 137.16 20.72 137.16 20.22 137.47 20.17 136.83 20.51 137.02 20.5 137.02 20.73 137 20.73 0 .39 2.13 .39 7.64 0 7.5"/>
      <polygon class="cls-2" points="20.72 137.16 20.73 137.15 20.51 137.02 20.72 137.16"/>
      <polygon class="cls-2" points="20.17 136.83 20.22 137.47 20.72 137.16 20.51 137.02 20.17 136.83"/>
      <path class="cls-2" d="M178.5,227.9h49.47l6.26,40.99h39.69L226.85,6.33h-41.21l-53.69,262.56h39.73l6.82-40.99ZM205.03,70.57l.62.02,16.56,114.85h-36.28l19.1-114.86Z"/>
      <path class="cls-2" d="M403.25,234.63c14.44-22.84,21.66-55.5,21.66-97.96s-7.39-74.28-22.18-96.7c-14.79-22.42-34.72-33.63-59.78-33.63h-44.97v262.56h43.46c26.77,0,47.37-11.42,61.81-34.27ZM339.04,53.63h4.51c6.72,0,13.23,2.66,19.55,7.99,6.32,5.33,11.1,13.45,14.36,24.39,3.26,10.93,4.89,29.29,4.89,55.08,0,34.9-4.39,56.97-13.16,66.22-8.77,9.25-17.22,13.87-25.34,13.87h-4.81V53.63Z"/>
      <polygon class="cls-2" points="577.86 103.24 578.46 103.24 626.28 268.89 669.15 268.89 669.15 5.91 630.65 5.91 630.65 169.04 629.89 169.04 582.82 5.91 538.46 5.91 538.46 268.89 577.86 268.89 577.86 103.24"/>
      <polygon class="cls-2" points="731.86 268.89 772.46 268.89 772.46 57.2 809.01 57.2 809.01 6.33 694.56 6.33 694.56 57.62 731.86 57.62 731.86 268.89"/>
      <path class="cls-2" d="M890.52,274.15c19.95,0,36.22-10.05,48.8-30.17,12.58-20.11,18.87-56.58,18.87-109.42,0-25.78-1.45-46.49-4.36-62.12-2.91-15.63-7.5-28.73-13.76-39.31-6.27-10.58-13.06-18.64-20.38-24.18-7.32-5.53-16.94-8.3-28.88-8.3-14.44,0-26.39,4.77-35.87,14.29-9.47,9.53-17.07,22.91-22.78,40.15s-8.57,44.29-8.57,81.14c0,50.31,6.07,85.87,18.2,106.69,12.13,20.81,28.37,31.22,48.73,31.22ZM866.46,120.27c0-22.7,1.9-39.27,5.71-49.72,3.81-10.44,10.02-15.66,18.65-15.66,5.92,0,10.93,3.02,15.04,9.04,4.11,6.03,6.84,13.91,8.2,23.65,1.35,9.74,2.03,26.1,2.03,49.09,0,25.65-.8,43.48-2.41,53.5-1.6,10.02-4.41,17.48-8.42,22.39-4.01,4.91-8.42,7.36-13.23,7.36-5.92,0-11-2.52-15.26-7.57-4.26-5.04-7.04-11.95-8.35-20.71-1.3-8.76-1.96-26.94-1.96-54.55v-16.82Z"/>
      <polygon class="cls-2" points="1230.4 103.24 1231 103.24 1278.83 268.89 1321.69 268.89 1321.69 5.91 1283.19 5.91 1283.19 169.04 1282.44 169.04 1235.37 5.91 1191 5.91 1191 268.89 1230.4 268.89 1230.4 103.24"/>
      <path class="cls-1" d="M1003.71,272.69c5.91,1.06,12.05-.08,17.76-3.54,9.16-5.58,17.19-17.06,21.37-34.99,4.19,18.3,12.26,30.07,21.43,35.78,5.62,3.46,11.63,4.71,17.42,3.7,5.83-.98,11.43-4.2,16.17-9.49,5.12-5.74,9.23-13.86,11.54-24.22,4.45,15.1,11.73,25.07,19.86,30.17,5.56,3.52,11.56,4.73,17.3,3.75,5.77-.98,11.32-4.18,16.03-9.47,9.54-10.74,15.54-29.94,12.69-56.67-.02-.24-.05-.5-.09-.79-.03-.37-.11-.71-.2-1.03l-41.88-199.15h-6.3l42.54,202.35c2.46,22.8-2.42,38.95-10.25,47.76-3.85,4.34-8.42,6.96-13.19,7.75-4.8.79-9.79-.21-14.45-3.15-9.71-6.11-17.97-20.63-20.1-44.43-.06-2.43-.21-4.92-.45-7.48v-.4c-.03-.29-.05-.58-.09-.87l-14.01-201.53h-6l13.92,200.1c-.03.48-.03.95.02,1.46.09.79.17,1.61.25,2.43.11,2.35.23,4.63.42,6.85.49,18.19-4.14,31.34-11,39.01-3.91,4.34-8.52,6.98-13.34,7.8-4.88.82-9.91-.16-14.6-3.09-10.57-6.58-19.42-23.01-20.56-50.4.03-.21.06-.42.08-.66l13.72-203.49h-6.03l-13.51,200.58c-.03.11-.05.18-.08.29l-.02.03-.02.08-.02.03-.02.08-.02.03-.02.08-.02.03-.02.08v.11s-.02.08-.02.08l-.02.03v.08s-.02.05-.02.05l-.02.08-.02.03c-.03.21-.03.42-.05.66l-.02.03c-.82,28.06-9.77,44.77-20.57,51.33-4.79,2.88-9.94,3.86-14.93,2.96-4.95-.9-9.74-3.62-13.77-8.07-8.25-9.1-13.46-25.57-10.97-48.63L1022.84,6.74h-6.29l-42.55,196.67c-.09.32-.17.66-.22,1.01l-.11.5c-.14.66-.17,1.29-.14,1.93-2.49,26.29,3.8,45.35,13.62,56.14,4.88,5.37,10.6,8.65,16.54,9.71Z"/>
      <polygon class="cls-2" points=".39 113.98 .39 107.9 0 108.04 0 114.11 .39 113.98"/>
      <polygon class="cls-2" points=".39 37.38 0 37.34 0 43.15 .39 43.19 .39 37.38"/>
      <polygon class="cls-2" points=".39 73.19 0 73.24 0 79.03 .39 78.98 .39 73.19"/>
      <polygon class="cls-2" points=".39 165.64 .39 159.57 0 159.43 0 165.5 .39 165.64"/>
      <polygon class="cls-2" points=".39 195.38 0 195.34 0 201.15 .39 201.19 .39 195.38"/>
      <polygon class="cls-2" points=".39 231.19 0 231.24 0 237.03 .39 236.98 .39 231.19"/>
      <polygon class="cls-2" points=".39 265.9 0 266.04 0 272.11 .39 271.98 .39 265.9"/>
      <rect class="cls-2" x="458.15" y="48.45" width="40.61" height="220.44"/>
    </g>
  </g>
</svg>