<?xml version="1.0" encoding="UTF-8"?>
<svg id="Calque_2" data-name="Calque 2" xmlns="http://www.w3.org/2000/svg" viewBox="0 0 2046.4 2270.19">
  <defs>
    <style>
      .cls-1, .cls-2, .cls-3 {
        stroke: #704351;
        stroke-miterlimit: 10;
      }

      .cls-1, .cls-4 {
        fill: #dcccd2;
      }

      .cls-5 {
        letter-spacing: -.04em;
      }

      .cls-2 {
        font-family: SourGummy-Regular, 'Sour Gummy';
        font-size: 256.39px;
        font-variation-settings: 'wdth' 100, 'wght' 400;
      }

      .cls-2, .cls-3, .cls-6 {
        fill: #704351;
      }

      .cls-7 {
        letter-spacing: -.08em;
      }

      .cls-8 {
        letter-spacing: -.04em;
      }

      .cls-9 {
        letter-spacing: -.02em;
      }

      .cls-10 {
        letter-spacing: -.02em;
      }

      .cls-11 {
        letter-spacing: -.03em;
      }
    </style>
  </defs>
  <g id="Calque_1-2" data-name="Calque 1">
    <path class="cls-4" d="M1244.12,712.78c-53.56-51.81-137.48-150.73-207.11-149.98h-.32c-19.17-1.32-109.65-.22-130.54,0h-.32c-36.44-2.51-86.64,33.31-124.91,69.3-27.93,25.55-55.24,53.21-82.2,80.69-89.68,92.12-206.73,212.49-295.48,304.42-55,60.66-133.06,130.05-136.16,201.76-1.68,67.22,75.76,139.79,120.07,188.89,109.11,113.41,230.14,238.04,337.85,347.93,47.5,45.51,116.49,123.28,180.99,123.2,21.63.04,109.23.03,130.86,0,64.53.11,133.61-77.84,180.99-123.2,107.72-109.88,228.74-234.53,337.85-347.93,44.48-49.27,121.68-121.63,120.07-188.89-2.99-71.6-81.33-141.28-136.16-201.77-88.75-91.93-205.79-212.29-295.48-304.41Z"/>
    <path class="cls-3" d="M1256.63,712.78c-53.56-51.81-137.48-150.73-207.11-149.98h-.32c-19.17-1.32-109.65-.22-130.54,0h-.32c-36.44-2.51-86.64,33.31-124.91,69.3-27.93,25.55-55.24,53.21-82.2,80.69-89.68,92.12-206.73,212.49-295.48,304.42-55,60.66-133.06,130.05-136.16,201.76-1.68,67.22,75.76,139.79,120.07,188.89,109.11,113.41,230.14,238.04,337.85,347.93,47.5,45.51,116.49,123.28,180.99,123.2,21.63.04,109.23.03,130.86,0,64.53.11,133.61-77.84,180.99-123.2,107.72-109.88,228.74-234.53,337.85-347.93,44.48-49.27,121.68-121.63,120.07-188.89-2.99-71.6-81.33-141.28-136.16-201.77-88.75-91.93-205.79-212.29-295.48-304.41Z"/>
    <path class="cls-1" d="M1051.96,562.55c-37.53-2.51-89.24,33.31-128.65,69.3-28.76,25.55-56.89,53.21-84.66,80.69-92.37,92.12-212.93,212.49-304.34,304.42-56.65,60.66-137.04,130.05-140.25,201.76-1.73,67.22,78.03,139.79,123.67,188.89,112.38,113.41,237.04,238.04,347.99,347.93,48.93,45.51,119.99,123.28,186.41,123.2,66.47.11,137.61-77.84,186.42-123.2,110.95-109.88,235.6-234.53,347.99-347.93,45.82-49.27,125.33-121.63,123.67-188.89-3.08-71.6-83.77-141.28-140.24-201.77-91.41-91.93-211.96-212.29-304.34-304.41-55.17-51.81-141.6-150.73-213.32-149.98h-.33Z"/>
    <path class="cls-6" d="M992.56,1805.36c25.59,25.12,43.7,48.89-10.33,10.33-54.03-38.56-502.38-487.48-538.77-538.78-36.4-51.3-6.45-27.11,10.33-10.33,16.78,16.78,513.18,513.66,538.77,538.78Z"/>
    <path class="cls-4" d="M275.43,1226.99c10.43,8.23,115.76,10.29,126.49,2.11,4.76-3.63,6.42-6.26,6.29-8.06.72-1.78-.34-4.56-5.5-8.63-10.43-8.23-115.76-10.29-126.49-2.11-4.76,3.63-6.42,6.26-6.29,8.06-.72,1.78.34,4.56,5.5,8.63Z"/>
    <path class="cls-6" d="M460.76,1177.13c-25.07,25.64-49.45,43.14-12.54-12.54,36.91-55.68,485.89-503.97,538.77-538.78,52.89-34.81,29.32-4.24,12.54,12.54-16.78,16.78-513.71,513.13-538.77,538.78Z"/>
    <text class="cls-2" transform="translate(.5 2196.11)"><tspan class="cls-8" x="0" y="0">L</tspan><tspan class="cls-10" x="132.3" y="0">e</tspan><tspan x="265.87" y="0">s </tspan><tspan class="cls-5" x="462" y="0">É</tspan><tspan class="cls-11" x="593.27" y="0">c</tspan><tspan class="cls-9" x="725.82" y="0">la</tspan><tspan class="cls-7" x="922.47" y="0">t</tspan><tspan x="1018.87" y="0">s </tspan><tspan class="cls-10" x="1215" y="0">d</tspan><tspan x="1367.03" y="0">e </tspan><tspan class="cls-10" x="1572.39" y="0">Viv</tspan><tspan x="1887.75" y="0">y</tspan></text>
    <path class="cls-4" d="M268.59,440.22h0c0,84-68.1,152.1-152.1,152.1h0c84,0,152.1,68.1,152.1,152.1h0c0-84,68.1-152.1,152.1-152.1h0c-84,0-152.1-68.1-152.1-152.1ZM396.88,592.32c-70.85,0-128.29,57.44-128.29,128.29h0c0-70.85-57.44-128.29-128.29-128.29h0c70.85,0,128.29-57.44,128.29-128.29h0c0,70.85,57.44,128.29,128.29,128.29h0Z"/>
    <path class="cls-6" d="M268.59,464.07h0c0,70.85-57.44,128.29-128.29,128.29h0c70.85,0,128.29,57.44,128.29,128.29h0c0-70.85,57.44-128.29,128.29-128.29h0c-70.85,0-128.29-57.44-128.29-128.29Z"/>
    <path class="cls-6" d="M268.59,412.9h0c0,99.09-80.33,179.42-179.42,179.42h0c99.09,0,179.42,80.33,179.42,179.42h0c0-99.09,80.33-179.42,179.42-179.42h0c-99.09,0-179.42-80.33-179.42-179.42ZM419.92,592.32c-83.58,0-151.33,67.75-151.33,151.33h0c0-83.58-67.75-151.33-151.33-151.33h0c83.58,0,151.33-67.75,151.33-151.33h0c0,83.58,67.75,151.33,151.33,151.33h0Z"/>
    <path class="cls-4" d="M1699.26,440.22h0c0,84-68.1,152.1-152.1,152.1h0c84,0,152.1,68.1,152.1,152.1h0c0-84,68.1-152.1,152.1-152.1h0c-84,0-152.1-68.1-152.1-152.1ZM1827.55,592.32c-70.85,0-128.29,57.44-128.29,128.29h0c0-70.85-57.44-128.29-128.29-128.29h0c70.85,0,128.29-57.44,128.29-128.29h0c0,70.85,57.44,128.29,128.29,128.29h0Z"/>
    <path class="cls-6" d="M1699.26,464.07h0c0,70.85-57.44,128.29-128.29,128.29h0c70.85,0,128.29,57.44,128.29,128.29h0c0-70.85,57.44-128.29,128.29-128.29h0c-70.85,0-128.29-57.44-128.29-128.29Z"/>
    <path class="cls-6" d="M1699.26,412.9h0c0,99.09-80.33,179.42-179.42,179.42h0c99.09,0,179.42,80.33,179.42,179.42h0c0-99.09,80.33-179.42,179.42-179.42h0c-99.09,0-179.42-80.33-179.42-179.42ZM1850.59,592.32c-83.58,0-151.33,67.75-151.33,151.33h0c0-83.58-67.75-151.33-151.33-151.33h0c83.58,0,151.33-67.75,151.33-151.33h0c0,83.58,67.75,151.33,151.33,151.33h0Z"/>
    <path class="cls-4" d="M1006.36,27.31h0c0,84-68.1,152.1-152.1,152.1h0c84,0,152.1,68.1,152.1,152.1h0c0-84,68.1-152.1,152.1-152.1h0c-84,0-152.1-68.1-152.1-152.1ZM1134.65,179.42c-70.85,0-128.29,57.44-128.29,128.29h0c0-70.85-57.44-128.29-128.29-128.29h0c70.85,0,128.29-57.44,128.29-128.29h0c0,70.85,57.44,128.29,128.29,128.29h0Z"/>
    <path class="cls-6" d="M1006.36,51.17h0c0,70.85-57.44,128.29-128.29,128.29h0c70.85,0,128.29,57.44,128.29,128.29h0c0-70.85,57.44-128.29,128.29-128.29h0c-70.85,0-128.29-57.44-128.29-128.29Z"/>
    <path class="cls-6" d="M1006.36,0h0c0,99.09-80.33,179.42-179.42,179.42h0c99.09,0,179.42,80.33,179.42,179.42h0c0-99.09,80.33-179.42,179.42-179.42h0c-99.09,0-179.42-80.33-179.42-179.42ZM1157.69,179.42c-83.58,0-151.33,67.75-151.33,151.33h0c0-83.58-67.75-151.33-151.33-151.33h0c83.58,0,151.33-67.75,151.33-151.33h0c0,83.58,67.75,151.33,151.33,151.33h0Z"/>
    <path class="cls-6" d="M1581.51,1143.03c-21.44-24.49-49.35-58.99-70.61-75.05-13.1-10.73-34.68-18.96-27.6,7.64,4.99,17.74,16.02,35.81,27.95,52.51,20.32,27.72,49.44,57.72,50.96,91.56-1.52,33.84-30.63,63.84-50.96,91.56-11.93,16.71-22.96,34.78-27.95,52.51-7.09,26.6,14.5,18.37,27.6,7.64,21.25-16.06,49.17-50.56,70.61-75.05,18.4-22.75,44.71-51.44,44.71-76.66s-26.31-53.91-44.71-76.66Z"/>
  </g>
</svg>