<svg width="190" height="202" viewBox="0 0 190 202" fill="none" xmlns="http://www.w3.org/2000/svg">
<path d="M72.2475 145.506V152.79H82.2225V155.436H72.2475V162.985H82.935V165.763H69.369V142.728H82.935V145.506H72.2475ZM78.8215 135.018H82.479L77.9 139.883H75.2495L78.812 135.018H78.8215Z" fill="#8E3F3F"/>
<path d="M0 142.832H2.8595V162.994H13.0435V165.763H0V142.832Z" fill="#8E3F3F"/>
<path d="M21.679 145.592V152.837H31.578V155.474H21.679V162.985H32.3V165.754H18.829V142.823H32.3V145.592H21.679Z" fill="#8E3F3F"/>
<path d="M42.1895 165.659C40.831 165.327 39.539 164.881 38.3325 164.312V161.183C39.7575 161.97 41.0875 162.558 42.3035 162.937C43.529 163.307 44.7355 163.497 45.923 163.497C47.4145 163.497 48.5735 163.155 49.4 162.472C50.2265 161.79 50.635 160.86 50.635 159.675C50.635 158.859 50.407 158.186 49.951 157.626C49.495 157.076 48.925 156.64 48.2315 156.308C47.538 155.976 46.607 155.616 45.4385 155.218C44.0325 154.734 42.902 154.279 42.047 153.833C41.192 153.397 40.4605 152.771 39.862 151.955C39.254 151.14 38.95 150.087 38.95 148.788C38.95 146.853 39.6435 145.317 41.0305 144.16C42.408 143.012 44.2795 142.424 46.6165 142.424C48.9535 142.424 50.9675 142.917 52.877 143.904V146.938C50.73 145.706 48.64 145.099 46.6165 145.099C45.125 145.099 43.9565 145.402 43.111 146C42.2655 146.606 41.8475 147.432 41.8475 148.484C41.8475 149.214 42.066 149.812 42.4935 150.296C42.9305 150.779 43.453 151.168 44.08 151.462C44.707 151.756 45.5905 152.116 46.74 152.534C48.165 153.017 49.343 153.482 50.2455 153.947C51.148 154.411 51.927 155.075 52.5635 155.957C53.2 156.839 53.523 157.968 53.523 159.352C53.523 160.737 53.219 161.903 52.6205 162.928C52.0125 163.952 51.148 164.739 50.0175 165.299C48.8965 165.858 47.595 166.143 46.1225 166.143C44.8685 166.143 43.5575 165.981 42.1895 165.649V165.659Z" fill="#8E3F3F"/>
<path d="M94.0405 164.673C92.5205 163.686 91.371 162.302 90.6015 160.519C89.832 158.736 89.452 156.669 89.452 154.288C89.452 151.908 89.832 149.84 90.6015 148.067C91.371 146.284 92.5205 144.899 94.0405 143.913C95.57 142.927 97.4225 142.434 99.6075 142.434C100.795 142.434 101.945 142.585 103.047 142.879C104.149 143.173 105.156 143.61 106.068 144.179V147.469H105.944C105.232 146.768 104.339 146.199 103.246 145.772C102.163 145.345 100.985 145.127 99.712 145.127C97.242 145.127 95.437 145.933 94.278 147.564C93.1285 149.186 92.5395 151.424 92.5395 154.279C92.5395 157.133 93.119 159.409 94.278 161.031C95.437 162.653 97.242 163.468 99.6835 163.468C100.909 163.468 102.078 163.26 103.17 162.842C104.263 162.425 105.184 161.837 105.944 161.097H106.068V164.388C105.165 164.957 104.149 165.393 103.047 165.687C101.945 165.991 100.795 166.133 99.6075 166.133C97.4225 166.133 95.57 165.64 94.0405 164.654V164.673Z" fill="#8E3F3F"/>
<path d="M113.592 142.832H116.451V162.994H126.635V165.763H113.592V142.832Z" fill="#8E3F3F"/>
<path d="M145.72 159.694H134.852L132.544 165.754H129.694L138.386 142.823H142.338L151.04 165.754H148.019L145.72 159.694ZM144.78 157.228L140.305 145.364L135.793 157.228H144.78Z" fill="#8E3F3F"/>
<path d="M160.037 145.724H153.225V142.823H169.717V145.724H162.896V165.754H160.046V145.724H160.037Z" fill="#8E3F3F"/>
<path d="M178.505 165.659C177.146 165.327 175.854 164.881 174.648 164.312V161.183C176.073 161.97 177.403 162.558 178.619 162.937C179.844 163.307 181.051 163.497 182.238 163.497C183.73 163.497 184.889 163.155 185.715 162.472C186.542 161.79 186.95 160.86 186.95 159.675C186.95 158.859 186.722 158.186 186.266 157.626C185.81 157.076 185.24 156.64 184.547 156.308C183.853 155.976 182.922 155.616 181.754 155.218C180.348 154.734 179.217 154.279 178.362 153.833C177.507 153.397 176.776 152.771 176.177 151.955C175.569 151.14 175.265 150.087 175.265 148.788C175.265 146.853 175.959 145.317 177.346 144.16C178.723 143.012 180.595 142.424 182.932 142.424C185.269 142.424 187.283 142.917 189.192 143.904V146.938C187.045 145.706 184.955 145.099 182.932 145.099C181.44 145.099 180.272 145.402 179.426 146C178.581 146.606 178.163 147.432 178.163 148.484C178.163 149.214 178.381 149.812 178.809 150.296C179.246 150.779 179.768 151.168 180.395 151.462C181.022 151.756 181.906 152.116 183.055 152.534C184.48 153.017 185.658 153.482 186.561 153.947C187.463 154.411 188.242 155.075 188.879 155.957C189.515 156.839 189.838 157.968 189.838 159.352C189.838 160.737 189.534 161.903 188.936 162.928C188.328 163.952 187.463 164.739 186.333 165.299C185.212 165.858 183.91 166.143 182.438 166.143C181.184 166.143 179.873 165.981 178.505 165.649V165.659Z" fill="#8E3F3F"/>
<path d="M22.914 174.336C25.5645 177.144 26.8945 181.051 26.8945 186.058C26.8945 191.065 25.5645 194.973 22.914 197.78C20.2635 200.596 16.4255 201.99 11.4095 201.99H0V170.116H11.4095C16.4255 170.116 20.2635 171.52 22.914 174.327V174.336ZM19.6365 194.925C21.394 192.772 22.2775 189.823 22.2775 186.058C22.2775 182.293 21.394 179.353 19.6365 177.2C17.8695 175.048 15.2475 173.976 11.742 173.976H4.2655V198.159H11.742C15.238 198.159 17.86 197.087 19.6365 194.935V194.925Z" fill="#8E3F3F"/>
<path d="M42.1324 173.976V184.048H56.9334V187.708H42.1324V198.15H58.0069V202H37.8669V170.126H58.0069V173.967H42.1324V173.976Z" fill="#8E3F3F"/>
<path d="M108.461 170.126L96.0925 202H90.7535L78.375 170.126H82.8875L93.5655 197.562L104.196 170.126H108.461Z" fill="#8E3F3F"/>
<path d="M116.033 170.126H120.308V202H116.033V170.126Z" fill="#8E3F3F"/>
<path d="M157.966 170.126L145.597 202H140.258L127.88 170.126H132.392L143.07 197.562L153.701 170.126H157.966Z" fill="#8E3F3F"/>
<path d="M190 170.126L178.059 190.364V202H173.784V190.364L161.842 170.126H166.839L175.912 186.058L185.231 170.126H189.991H190Z" fill="#8E3F3F"/>
<path d="M190 34.7004L152.542 42.0407L157.216 48.0818L190 34.7004Z" fill="#8E3F3F"/>
<path d="M157.158 50.6233L140.647 61.3397V79.2921L157.158 50.6233Z" fill="#8E3F3F"/>
<path d="M148.903 39.1671L133.864 33.9132L124.469 37.6403L134.7 42.0596L148.903 39.1671Z" fill="#8E3F3F"/>
<path d="M131.309 46.7256L148.038 47.1239L134.919 61.1785L131.309 46.7256Z" fill="#8E3F3F"/>
<path d="M129.979 51.9225L131.309 65.3512L120.526 77.0919L129.979 51.9225Z" fill="#8E3F3F"/>
<path d="M126.474 43.7951L111.578 53.952L120.527 40.4094L126.474 43.7951Z" fill="#8E3F3F"/>
<path d="M105.963 48.0816L90.288 30.9259L59.5935 8.35498L105.963 48.0816Z" fill="#8E3F3F"/>
<path d="M97.2895 53.952L55.48 11.6269L34.9125 0L46.9205 21.4423L97.2895 53.952Z" fill="#8E3F3F"/>
<path d="M53.1525 31.8269L71.497 42.0597L104.177 66.8213L73.72 51.9226L63.156 47.1808L53.1525 31.8269Z" fill="#8E3F3F"/>
<path d="M103.407 72.3501L68.381 54.7391L75.4965 67.7221L103.407 72.3501Z" fill="#8E3F3F"/>
<path d="M103.408 76.4091L98.0685 79.2921L85.2815 77.0919L80.389 73.2511L103.408 76.4091Z" fill="#8E3F3F"/>
<path d="M100.406 50.6233L112.433 59.6042L124.469 51.9225L114.741 75.3944L100.406 50.6233Z" fill="#8E3F3F"/>
<path d="M130.758 74.0382L131.309 85.4375L118.19 100.222L100.406 107.221L115.853 93.7925L121.638 81.4923L130.758 74.0382Z" fill="#8E3F3F"/>
<path d="M115.302 80.1361C115.634 80.0223 113.858 89.8473 113.858 89.8473L105.963 96.8462V87.135L115.302 80.1361Z" fill="#8E3F3F"/>
<path d="M102.068 85.5513V96.8367L90.839 99.3214L79.8285 96.8367L102.068 85.5513Z" fill="#8E3F3F"/>
<path d="M95.8455 83.5218L78.166 93.233L55.708 98.0791L74.385 79.2921L95.8455 83.5218Z" fill="#8E3F3F"/>
<path d="M68.381 74.7211L62.1585 81.7199H54.4825V78.2205L59.5935 75.3944L68.381 74.7211Z" fill="#8E3F3F"/>
<path d="M57.703 87.9221L50.369 95.3762L41.8094 96.8367L46.0369 90.6344L57.703 87.9221Z" fill="#8E3F3F"/>
<path d="M48.697 83.6356L41.0305 86.9074L25.3555 81.1509L48.697 83.6356Z" fill="#8E3F3F"/>
<path d="M18.1261 83.5217L22.1256 89.2783H15.5706L18.1261 83.5217Z" fill="#8E3F3F"/>
<path d="M28.9084 90.0654L37.9144 91.763L31.1314 98.7619L33.4114 93.2329L28.9084 90.0654Z" fill="#8E3F3F"/>
<path d="M25.3556 98.7618L22.1256 103.162L15.5706 104.063L18.0121 99.3214L25.3556 98.7618Z" fill="#8E3F3F"/>
<path d="M33.5825 106.055L29.412 106.102L26.6855 109.146L29.8015 109.478L33.5825 106.055Z" fill="#8E3F3F"/>
<path d="M14.117 94.4185L11.4095 94.4469L9.65198 96.4005L11.666 96.6186L14.117 94.4185Z" fill="#8E3F3F"/>
<path d="M46.474 102.935L41.0305 104.964L38.361 108.075L44.0325 107.221L46.474 102.935Z" fill="#8E3F3F"/>
<path d="M35.112 114.448L23.826 113.888L31.502 118.061L35.112 114.448Z" fill="#8E3F3F"/>
<path d="M9.3005 87.0876L0 86.6229L6.327 90.0655L9.3005 87.0876Z" fill="#8E3F3F"/>
<path d="M37.9146 124.491H50.5875L66.1011 112.304L53.1526 117.606H42.9211L37.9146 124.491Z" fill="#8E3F3F"/>
<path d="M53.2569 103.143L48.3929 111.527H56.2874L73.8529 100.573L61.1229 104.3L53.2569 103.143Z" fill="#8E3F3F"/>
<path d="M75.772 109.934H91.8935L98.287 104.063L75.772 109.934Z" fill="#8E3F3F"/>
</svg>
